# xmcd CD database file
#
# Track frame offsets:
#	150
#	13387
#	26179
#	39877
#	49907
#	64093
#	77825
#	92091
#	105101
#	117800
#	130606
#	143349
#	156860
#	170732
#	184131
#	197375
#	210846
#	223216
#	236632
#	248678
#	263072
#	276086
#
# Disc length: 3875 seconds
#
# Revision: 0
# Processed by: cddbd v1.5PL3 Copyright (c) Steve Scherf et al.
# Submitted via: CDex 1.51
#
DISCID=290f2116
DTITLE=Billy Holiday - God Bless The Child
DYEAR=1900
DGENRE=Jazz
TTITLE0=God Bless The Child
TTITLE1=A Sailboat In The Moonlight
TTITLE2=Getting Some Fun Out Of Life
TTITLE3=Trav'lin' All Alone
TTITLE4=Nice Work If  You Can Get It
TTITLE5=My Man
TTITLE6=Strange Fruit
TTITLE7=Without Your Love
TTITLE8=My First Impression Of You
TTITLE9=When You're Smiling
TTITLE10=I Can't Believe That You're In Love With Me
TTITLE11=Now They Call It The Swing
TTITLE12=On The Sentimental Side
TTITLE13=Yesterdays
TTITLE14=Swing Brother Swing
TTITLE15=Night And Day
TTITLE16=You're A Lucky Guy
TTITLE17=Body and Soul
TTITLE18=I Hear Music
TTITLE19=It's The Same Old Story
TTITLE20=St. Louis Blues
TTITLE21=Loveless Love
EXTD=
EXTT0=
EXTT1=
EXTT2=
EXTT3=
EXTT4=
EXTT5=
EXTT6=
EXTT7=
EXTT8=
EXTT9=
EXTT10=
EXTT11=
EXTT12=
EXTT13=
EXTT14=
EXTT15=
EXTT16=
EXTT17=
EXTT18=
EXTT19=
EXTT20=
EXTT21=
PLAYORDER=
